<?xml version="1.0" standalone="no"?>
<!DOCTYPE svg PUBLIC "-//W3C//DTD SVG 20010904//EN"
 "http://www.w3.org/TR/2001/REC-SVG-20010904/DTD/svg10.dtd">
<svg version="1.0" xmlns="http://www.w3.org/2000/svg"
 width="32.000000pt" height="32.000000pt" viewBox="0 0 32.000000 32.000000"
 preserveAspectRatio="xMidYMid meet">

<g transform="translate(0.000000,32.000000) scale(0.100000,-0.100000)"
fill="#000000" stroke="none">
<path d="M142 223 c-5 -16 -13 -36 -17 -45 -5 -13 -2 -18 9 -18 9 0 16 7 16
15 0 8 5 15 10 15 6 0 10 -7 10 -15 0 -8 7 -15 16 -15 11 0 14 5 9 18 -4 9
-12 29 -17 45 -5 15 -14 27 -18 27 -4 0 -13 -12 -18 -27z"/>
<path d="M95 113 c-8 -20 -13 -38 -11 -40 7 -8 45 7 61 23 13 14 17 14 30 0
16 -16 54 -31 61 -23 2 2 -3 20 -11 40 -17 42 -41 51 -31 12 5 -19 3 -23 -9
-19 -8 4 -15 15 -15 25 0 10 -4 19 -10 19 -5 0 -10 -9 -10 -19 0 -10 -7 -21
-15 -25 -12 -4 -14 0 -9 19 10 39 -14 30 -31 -12z"/>
<path d="M64 42 c24 -24 168 -24 192 0 16 16 14 16 -22 3 -50 -18 -98 -18
-148 0 -36 13 -38 13 -22 -3z"/>
<path d="M138 53 c12 -2 32 -2 45 0 12 2 2 4 -23 4 -25 0 -35 -2 -22 -4z"/>
</g>
</svg>
